<?xml version="1.0" encoding="UTF-8" standalone="no"?>
<!DOCTYPE svg PUBLIC "-//W3C//DTD SVG 1.1//EN" "http://www.w3.org/Graphics/SVG/1.1/DTD/svg11.dtd">
<svg width="100%" height="100%" viewBox="0 0 139 20" version="1.1" xmlns="http://www.w3.org/2000/svg" xmlns:xlink="http://www.w3.org/1999/xlink" xml:space="preserve" xmlns:serif="http://www.serif.com/" style="fill-rule:evenodd;clip-rule:evenodd;stroke-linejoin:round;stroke-miterlimit:2;">
    <path d="M37.754,15.847C40.606,15.847 42.906,14.225 43.706,11.631L39.809,11.631C39.433,12.296 38.669,12.697 37.754,12.697C36.517,12.697 35.689,12.023 35.434,10.719L43.874,10.719C43.925,10.367 43.955,10.025 43.955,9.682C43.955,6.347 41.418,3.732 37.754,3.732C34.186,3.732 31.579,6.296 31.579,9.781C31.579,13.254 34.207,15.847 37.754,15.847ZM40.098,8.55L35.502,8.55C35.819,7.421 36.612,6.801 37.754,6.801C38.935,6.801 39.754,7.414 40.098,8.551L40.098,8.55ZM51.044,15.846C52.364,15.846 53.544,15.412 54.474,14.658L54.81,15.462L57.837,15.462L57.837,4.093L54.918,4.093L54.518,4.973C53.578,4.198 52.383,3.751 51.044,3.751C47.568,3.751 45.083,6.256 45.083,9.777C45.083,13.31 47.568,15.847 51.044,15.847L51.044,15.846ZM51.568,12.379C50.101,12.379 49.023,11.271 49.023,9.786C49.023,8.311 50.092,7.203 51.568,7.203C53.034,7.203 54.112,8.311 54.112,9.786C54.112,11.271 53.034,12.379 51.568,12.379ZM64.691,15.846C67.711,15.846 69.716,14.292 69.716,11.916C69.716,9.033 67.329,8.66 65.533,8.341C64.453,8.148 63.583,7.997 63.583,7.351C63.583,6.824 64.005,6.513 64.633,6.513C65.343,6.513 65.83,6.85 65.83,7.576L69.497,7.576C69.453,5.273 67.577,3.733 64.681,3.733C61.769,3.733 59.827,5.203 59.827,7.483C59.827,10.24 62.164,10.772 63.927,11.057C65.019,11.238 65.879,11.425 65.879,12.081C65.879,12.668 65.336,12.961 64.763,12.961C64.021,12.961 63.443,12.578 63.443,11.747L59.673,11.747C59.709,14.21 61.592,15.847 64.691,15.847L64.691,15.846ZM72.791,19.704C75.727,19.704 77.135,18.447 78.668,14.968L83.432,4.105L79.226,4.105L76.977,10.368L74.565,4.105L70.31,4.105L75.008,14.535C74.478,15.949 74.025,16.339 72.528,16.339L71.45,16.339L71.45,19.704L72.791,19.704ZM91.295,15.846C94.795,15.846 97.268,13.331 97.268,9.798C97.268,6.265 94.796,3.75 91.295,3.75C90.299,3.742 89.32,4.014 88.47,4.534L88.47,0L84.6,0L84.6,15.474L87.497,15.474L87.867,14.63C88.79,15.401 89.969,15.846 91.295,15.846ZM90.772,12.379C89.305,12.379 88.227,11.271 88.227,9.799C88.227,8.313 89.305,7.205 90.772,7.205C92.238,7.205 93.316,8.313 93.316,9.798C93.316,11.271 92.229,12.378 90.772,12.378L90.772,12.379ZM104.37,15.846C105.69,15.846 106.87,15.412 107.8,14.658L108.136,15.462L111.163,15.462L111.163,4.093L108.245,4.093L107.844,4.973C106.905,4.198 105.709,3.751 104.37,3.751C100.894,3.751 98.41,6.256 98.41,9.777C98.41,13.31 100.894,15.847 104.37,15.847L104.37,15.846ZM104.894,12.379C103.427,12.379 102.349,11.271 102.349,9.786C102.349,8.311 103.419,7.203 104.894,7.203C106.361,7.203 107.439,8.311 107.439,9.786C107.439,11.271 106.361,12.379 104.894,12.379ZM117.547,15.475L117.547,9.403C117.547,7.956 118.249,7.103 119.47,7.103C120.456,7.103 120.953,7.76 120.953,9.083L120.953,15.473L124.868,15.473L124.868,8.543C124.868,5.646 123.135,3.77 120.495,3.77C119.025,3.77 117.762,4.335 116.915,5.278L116.378,4.106L113.631,4.106L113.631,15.475L117.547,15.475ZM131.295,15.474L131.295,10.666L134.143,15.474L138.759,15.474L134.857,9.524L138.4,4.105L134.003,4.105L131.295,8.559L131.295,0L127.379,0L127.379,15.474L131.295,15.474Z" style="fill:white;fill-rule:nonzero;"/>
    <g>
        <path d="M10.802,0L0,19.704L5.986,19.704L16.789,0L10.802,0Z" style="fill:url(#_Linear1);"/>
        <path d="M18.171,0L7.368,19.704L13.354,19.704L24.157,0L18.171,0Z" style="fill:url(#_Linear2);"/>
        <path d="M25.539,0L14.737,19.704L20.723,19.704L31.525,0L25.539,0Z" style="fill:url(#_Linear3);"/>
    </g>
    <defs>
        <linearGradient id="_Linear1" x1="0" y1="0" x2="1" y2="0" gradientUnits="userSpaceOnUse" gradientTransform="matrix(-9.18224,19.704,-19.704,-9.18224,12.1208,0)"><stop offset="0" style="stop-color:rgb(51,211,94);stop-opacity:1"/><stop offset="1" style="stop-color:rgb(42,182,217);stop-opacity:1"/></linearGradient>
        <linearGradient id="_Linear2" x1="0" y1="0" x2="1" y2="0" gradientUnits="userSpaceOnUse" gradientTransform="matrix(-9.18224,19.704,-19.704,-9.18224,19.4888,0)"><stop offset="0" style="stop-color:rgb(51,211,94);stop-opacity:0.5"/><stop offset="1" style="stop-color:rgb(42,182,217);stop-opacity:0.5"/></linearGradient>
        <linearGradient id="_Linear3" x1="0" y1="0" x2="1" y2="0" gradientUnits="userSpaceOnUse" gradientTransform="matrix(-9.18169,19.704,-19.704,-9.18169,26.8571,0)"><stop offset="0" style="stop-color:rgb(51,211,94);stop-opacity:0.15"/><stop offset="1" style="stop-color:rgb(42,182,217);stop-opacity:0.15"/></linearGradient>
    </defs>
</svg>
